<svg xmlns="http://www.w3.org/2000/svg" xmlns:xlink="http://www.w3.org/1999/xlink" width="600" zoomAndPan="magnify" viewBox="0 0 450 149.999998" height="200" preserveAspectRatio="xMidYMid meet" version="1.0"><defs><clipPath id="fc7f8c07fe"><path d="M 30.644531 43.082031 L 90.644531 43.082031 L 90.644531 103.082031 L 30.644531 103.082031 Z M 30.644531 43.082031 " clip-rule="nonzero"/></clipPath><clipPath id="311541db1c"><path d="M 107.144531 44 L 171.644531 44 L 171.644531 102 L 107.144531 102 Z M 107.144531 44 " clip-rule="nonzero"/></clipPath><clipPath id="e1a9e1e5ab"><path d="M 188.167969 41.070312 L 241.417969 41.070312 L 241.417969 101.070312 L 188.167969 101.070312 Z M 188.167969 41.070312 " clip-rule="nonzero"/></clipPath><clipPath id="b1401c2a67"><path d="M 272 41.070312 L 286 41.070312 L 286 94 L 272 94 Z M 272 41.070312 " clip-rule="nonzero"/></clipPath><clipPath id="cd92159c81"><path d="M 258 41.070312 L 273 41.070312 L 273 94 L 258 94 Z M 258 41.070312 " clip-rule="nonzero"/></clipPath><clipPath id="e137c59ef0"><path d="M 271 86 L 275 86 L 275 101.070312 L 271 101.070312 Z M 271 86 " clip-rule="nonzero"/></clipPath><clipPath id="1073a3bdd7"><path d="M 302.550781 43.082031 L 355.050781 43.082031 L 355.050781 103 L 302.550781 103 Z M 302.550781 43.082031 " clip-rule="nonzero"/></clipPath><clipPath id="c66382e1e2"><path d="M 371.632812 43.082031 L 425.632812 43.082031 L 425.632812 103.082031 L 371.632812 103.082031 Z M 371.632812 43.082031 " clip-rule="nonzero"/></clipPath></defs><g clip-path="url(#fc7f8c07fe)"><path fill="#f7df1e" d="M 30.644531 43.082031 L 90.644531 43.082031 L 90.644531 103.082031 L 30.644531 103.082031 Z M 30.644531 43.082031 " fill-opacity="1" fill-rule="nonzero"/></g><path fill="#000000" d="M 46.417969 93.21875 L 51.011719 90.441406 C 51.894531 92.011719 52.703125 93.34375 54.636719 93.34375 C 56.488281 93.34375 57.65625 92.617188 57.65625 89.796875 L 57.65625 70.625 L 63.292969 70.625 L 63.292969 89.878906 C 63.292969 95.714844 59.871094 98.375 54.878906 98.375 C 50.367188 98.375 47.746094 96.039062 46.417969 93.21875 " fill-opacity="1" fill-rule="nonzero"/><path fill="#000000" d="M 66.355469 92.617188 L 70.949219 89.957031 C 72.15625 91.929688 73.726562 93.382812 76.503906 93.382812 C 78.84375 93.382812 80.332031 92.214844 80.332031 90.601562 C 80.332031 88.667969 78.800781 87.984375 76.222656 86.855469 L 74.816406 86.253906 C 70.746094 84.519531 68.050781 82.347656 68.050781 77.753906 C 68.050781 73.527344 71.269531 70.304688 76.304688 70.304688 C 79.890625 70.304688 82.46875 71.550781 84.320312 74.816406 L 79.929688 77.632812 C 78.964844 75.902344 77.917969 75.21875 76.304688 75.21875 C 74.652344 75.21875 73.605469 76.265625 73.605469 77.632812 C 73.605469 79.328125 74.652344 80.011719 77.070312 81.058594 L 78.480469 81.660156 C 83.273438 83.714844 85.972656 85.808594 85.972656 90.523438 C 85.972656 95.597656 81.984375 98.375 76.628906 98.375 C 71.390625 98.375 68.007812 95.878906 66.355469 92.617188 " fill-opacity="1" fill-rule="nonzero"/><g clip-path="url(#311541db1c)"><path fill="#00d8ff" d="M 160.132812 62.953125 C 159.46875 62.71875 158.773438 62.503906 158.0625 62.296875 C 158.179688 61.816406 158.289062 61.339844 158.382812 60.875 C 159.949219 53.222656 158.925781 47.054688 155.421875 45.027344 C 152.0625 43.078125 146.570312 45.109375 141.023438 49.960938 C 140.492188 50.425781 139.957031 50.921875 139.421875 51.4375 C 139.066406 51.097656 138.710938 50.765625 138.355469 50.449219 C 132.542969 45.261719 126.714844 43.074219 123.21875 45.109375 C 119.863281 47.0625 118.867188 52.859375 120.28125 60.113281 C 120.417969 60.8125 120.578125 61.527344 120.757812 62.253906 C 119.933594 62.492188 119.136719 62.742188 118.375 63.007812 C 111.558594 65.394531 107.207031 69.140625 107.207031 73.023438 C 107.207031 77.03125 111.878906 81.054688 118.976562 83.492188 C 119.539062 83.683594 120.117188 83.867188 120.71875 84.039062 C 120.523438 84.824219 120.355469 85.597656 120.210938 86.347656 C 118.867188 93.476562 119.917969 99.136719 123.261719 101.074219 C 126.71875 103.078125 132.519531 101.019531 138.167969 96.058594 C 138.617188 95.664062 139.0625 95.246094 139.511719 94.8125 C 140.09375 95.375 140.675781 95.90625 141.25 96.40625 C 146.722656 101.140625 152.125 103.050781 155.46875 101.105469 C 158.921875 99.097656 160.046875 93.015625 158.585938 85.621094 C 158.476562 85.054688 158.34375 84.480469 158.203125 83.890625 C 158.609375 83.769531 159.007812 83.644531 159.398438 83.515625 C 166.777344 81.058594 171.578125 77.085938 171.578125 73.023438 C 171.578125 69.125 167.085938 65.355469 160.132812 62.953125 Z M 158.535156 80.890625 C 158.183594 81.007812 157.820312 81.121094 157.453125 81.230469 C 156.636719 78.640625 155.539062 75.882812 154.191406 73.035156 C 155.476562 70.253906 156.53125 67.535156 157.324219 64.957031 C 157.984375 65.148438 158.621094 65.351562 159.238281 65.566406 C 165.195312 67.625 168.828125 70.675781 168.828125 73.023438 C 168.828125 75.523438 164.90625 78.769531 158.535156 80.890625 Z M 155.886719 86.15625 C 156.535156 89.425781 156.625 92.382812 156.199219 94.695312 C 155.816406 96.773438 155.042969 98.160156 154.089844 98.714844 C 152.0625 99.894531 147.722656 98.359375 143.046875 94.3125 C 142.507812 93.847656 141.96875 93.351562 141.425781 92.828125 C 143.238281 90.835938 145.054688 88.519531 146.824219 85.941406 C 149.933594 85.667969 152.875 85.210938 155.542969 84.59375 C 155.671875 85.125 155.789062 85.648438 155.886719 86.15625 Z M 129.152344 98.507812 C 127.171875 99.214844 125.59375 99.234375 124.636719 98.679688 C 122.609375 97.503906 121.765625 92.957031 122.914062 86.863281 C 123.046875 86.167969 123.203125 85.449219 123.386719 84.714844 C 126.023438 85.304688 128.941406 85.726562 132.058594 85.976562 C 133.839844 88.496094 135.707031 90.8125 137.585938 92.839844 C 137.175781 93.238281 136.765625 93.617188 136.359375 93.972656 C 133.863281 96.171875 131.359375 97.726562 129.152344 98.507812 Z M 119.867188 80.878906 C 116.730469 79.796875 114.136719 78.398438 112.359375 76.867188 C 110.761719 75.492188 109.957031 74.128906 109.957031 73.023438 C 109.957031 70.667969 113.453125 67.660156 119.28125 65.617188 C 119.988281 65.371094 120.726562 65.136719 121.496094 64.917969 C 122.300781 67.550781 123.359375 70.304688 124.632812 73.089844 C 123.339844 75.914062 122.269531 78.710938 121.457031 81.378906 C 120.910156 81.21875 120.378906 81.050781 119.867188 80.878906 Z M 122.980469 59.582031 C 121.769531 53.367188 122.574219 48.679688 124.597656 47.503906 C 126.75 46.25 131.511719 48.035156 136.53125 52.515625 C 136.851562 52.800781 137.171875 53.101562 137.496094 53.410156 C 135.628906 55.429688 133.777344 57.726562 132.011719 60.234375 C 128.984375 60.515625 126.085938 60.96875 123.421875 61.574219 C 123.253906 60.898438 123.105469 60.230469 122.980469 59.582031 Z M 150.746094 66.472656 C 150.109375 65.367188 149.457031 64.285156 148.789062 63.238281 C 150.84375 63.496094 152.8125 63.84375 154.660156 64.269531 C 154.105469 66.054688 153.414062 67.921875 152.601562 69.839844 C 152.015625 68.726562 151.398438 67.601562 150.746094 66.472656 Z M 139.421875 55.386719 C 140.691406 56.769531 141.964844 58.308594 143.210938 59.984375 C 141.953125 59.921875 140.679688 59.894531 139.394531 59.894531 C 138.121094 59.894531 136.855469 59.921875 135.605469 59.980469 C 136.851562 58.324219 138.136719 56.785156 139.421875 55.386719 Z M 128.027344 66.492188 C 127.390625 67.601562 126.785156 68.71875 126.210938 69.835938 C 125.410156 67.929688 124.722656 66.050781 124.164062 64.238281 C 126 63.824219 127.960938 63.488281 130 63.230469 C 129.324219 64.292969 128.664062 65.378906 128.027344 66.492188 Z M 130.058594 83.007812 C 127.953125 82.773438 125.964844 82.453125 124.128906 82.050781 C 124.695312 80.203125 125.394531 78.289062 126.214844 76.339844 C 126.789062 77.457031 127.398438 78.574219 128.039062 79.6875 C 128.691406 80.820312 129.367188 81.925781 130.058594 83.007812 Z M 139.5 90.851562 C 138.195312 89.4375 136.894531 87.875 135.625 86.191406 C 136.859375 86.242188 138.117188 86.265625 139.394531 86.265625 C 140.707031 86.265625 142.003906 86.234375 143.277344 86.179688 C 142.027344 87.890625 140.757812 89.457031 139.5 90.851562 Z M 152.625 76.238281 C 153.484375 78.210938 154.210938 80.117188 154.789062 81.929688 C 152.921875 82.359375 150.90625 82.703125 148.78125 82.960938 C 149.453125 81.894531 150.109375 80.796875 150.757812 79.667969 C 151.414062 78.523438 152.035156 77.378906 152.625 76.238281 Z M 148.375 78.285156 C 147.371094 80.039062 146.335938 81.714844 145.289062 83.292969 C 143.378906 83.429688 141.40625 83.5 139.394531 83.5 C 137.390625 83.5 135.441406 83.441406 133.5625 83.316406 C 132.472656 81.714844 131.417969 80.039062 130.417969 78.300781 C 129.421875 76.570312 128.503906 74.824219 127.671875 73.089844 C 128.503906 71.347656 129.417969 69.601562 130.410156 67.871094 C 131.402344 66.140625 132.449219 64.46875 133.53125 62.878906 C 135.445312 62.734375 137.410156 62.65625 139.394531 62.65625 C 141.386719 62.65625 143.351562 62.734375 145.265625 62.878906 C 146.332031 64.460938 147.371094 66.125 148.367188 67.859375 C 149.375 69.609375 150.304688 71.347656 151.140625 73.050781 C 150.304688 74.78125 149.382812 76.535156 148.375 78.285156 Z M 154.046875 47.417969 C 156.207031 48.667969 157.042969 53.707031 155.6875 60.316406 C 155.601562 60.738281 155.503906 61.167969 155.398438 61.601562 C 152.726562 60.984375 149.828125 60.523438 146.792969 60.234375 C 145.023438 57.703125 143.191406 55.402344 141.347656 53.410156 C 141.84375 52.929688 142.339844 52.476562 142.832031 52.046875 C 147.582031 47.886719 152.027344 46.246094 154.046875 47.417969 Z M 139.394531 67.242188 C 142.566406 67.242188 145.140625 69.828125 145.140625 73.019531 C 145.140625 76.210938 142.566406 78.800781 139.394531 78.800781 C 136.21875 78.800781 133.644531 76.210938 133.644531 73.019531 C 133.644531 69.828125 136.21875 67.242188 139.394531 67.242188 Z M 139.394531 67.242188 " fill-opacity="1" fill-rule="nonzero"/></g><g clip-path="url(#e1a9e1e5ab)"><path fill="#539e43" d="M 214.792969 101.0625 C 213.96875 101.0625 213.199219 100.84375 212.484375 100.460938 L 205.175781 96.117188 C 204.074219 95.515625 204.625 95.296875 204.957031 95.183594 C 206.441406 94.691406 206.714844 94.578125 208.253906 93.699219 C 208.417969 93.589844 208.636719 93.648438 208.804688 93.757812 L 214.410156 97.105469 C 214.628906 97.21875 214.90625 97.21875 215.070312 97.105469 L 237 84.417969 C 237.21875 84.308594 237.332031 84.085938 237.332031 83.8125 L 237.332031 58.484375 C 237.332031 58.207031 237.21875 57.988281 237 57.878906 L 215.070312 45.242188 C 214.851562 45.132812 214.574219 45.132812 214.410156 45.242188 L 192.480469 57.878906 C 192.257812 57.988281 192.148438 58.261719 192.148438 58.484375 L 192.148438 83.8125 C 192.148438 84.03125 192.257812 84.308594 192.476562 84.417969 L 198.46875 87.878906 C 201.710938 89.527344 203.746094 87.605469 203.746094 85.679688 L 203.746094 60.679688 C 203.746094 60.351562 204.019531 60.019531 204.40625 60.019531 L 207.210938 60.019531 C 207.539062 60.019531 207.867188 60.296875 207.867188 60.679688 L 207.867188 85.679688 C 207.867188 90.019531 205.503906 92.546875 201.382812 92.546875 C 200.117188 92.546875 199.128906 92.546875 196.324219 91.175781 L 190.554688 87.878906 C 189.125 87.054688 188.246094 85.515625 188.246094 83.867188 L 188.246094 58.539062 C 188.246094 56.890625 189.125 55.351562 190.554688 54.527344 L 212.484375 41.835938 C 213.859375 41.066406 215.730469 41.066406 217.101562 41.835938 L 239.035156 54.527344 C 240.464844 55.351562 241.34375 56.890625 241.34375 58.539062 L 241.34375 83.867188 C 241.34375 85.515625 240.464844 87.054688 239.035156 87.875 L 217.101562 100.570312 C 216.390625 100.898438 215.5625 101.0625 214.792969 101.0625 Z M 221.554688 83.648438 C 211.9375 83.648438 209.957031 79.25 209.957031 75.515625 C 209.957031 75.183594 210.230469 74.855469 210.617188 74.855469 L 213.476562 74.855469 C 213.804688 74.855469 214.078125 75.074219 214.078125 75.40625 C 214.519531 78.316406 215.785156 79.746094 221.609375 79.746094 C 226.226562 79.746094 228.207031 78.699219 228.207031 76.230469 C 228.207031 74.800781 227.65625 73.757812 220.457031 73.042969 C 214.464844 72.4375 210.726562 71.117188 210.726562 66.339844 C 210.726562 61.890625 214.464844 59.253906 220.730469 59.253906 C 227.765625 59.253906 231.230469 61.667969 231.671875 66.945312 C 231.671875 67.109375 231.613281 67.273438 231.503906 67.4375 C 231.394531 67.550781 231.230469 67.660156 231.0625 67.660156 L 228.207031 67.660156 C 227.933594 67.660156 227.65625 67.4375 227.601562 67.164062 C 226.941406 64.144531 225.238281 63.152344 220.730469 63.152344 C 215.675781 63.152344 215.070312 64.910156 215.070312 66.230469 C 215.070312 67.824219 215.785156 68.316406 222.601562 69.195312 C 229.363281 70.078125 232.550781 71.339844 232.550781 76.0625 C 232.492188 80.898438 228.535156 83.648438 221.554688 83.648438 Z M 221.554688 83.648438 " fill-opacity="1" fill-rule="nonzero"/></g><g clip-path="url(#b1401c2a67)"><path fill="#599636" d="M 272.0625 41.234375 L 273.683594 44.242188 C 274.046875 44.796875 274.441406 45.289062 274.90625 45.746094 C 276.265625 47.085938 277.554688 48.492188 278.714844 49.996094 C 281.460938 53.558594 283.316406 57.511719 284.640625 61.792969 C 285.433594 64.40625 285.863281 67.085938 285.898438 69.796875 C 286.03125 77.902344 283.214844 84.863281 277.539062 90.648438 C 276.613281 91.5625 275.621094 92.410156 274.558594 93.164062 C 273.996094 93.164062 273.730469 92.738281 273.5 92.347656 C 273.066406 91.628906 272.804688 90.808594 272.671875 89.992188 C 272.472656 89.011719 272.339844 88.03125 272.40625 87.019531 L 272.40625 86.5625 C 272.359375 86.464844 271.863281 41.464844 272.0625 41.234375 Z M 272.0625 41.234375 " fill-opacity="1" fill-rule="nonzero"/></g><g clip-path="url(#cd92159c81)"><path fill="#6cac48" d="M 272.0625 41.136719 C 271.996094 41.003906 271.929688 41.101562 271.863281 41.167969 C 271.894531 41.824219 271.664062 42.410156 271.300781 42.96875 C 270.902344 43.523438 270.371094 43.949219 269.84375 44.40625 C 266.898438 46.921875 264.582031 49.960938 262.726562 53.359375 C 260.257812 57.933594 258.984375 62.839844 258.625 68 C 258.457031 69.863281 259.21875 76.433594 259.816406 78.328125 C 261.4375 83.359375 264.351562 87.578125 268.125 91.238281 C 269.050781 92.117188 270.042969 92.9375 271.066406 93.722656 C 271.367188 93.722656 271.398438 93.457031 271.464844 93.265625 C 271.597656 92.847656 271.695312 92.421875 271.765625 91.988281 L 272.429688 87.085938 Z M 272.0625 41.136719 " fill-opacity="1" fill-rule="nonzero"/></g><g clip-path="url(#e137c59ef0)"><path fill="#c2bfbf" d="M 273.683594 95.15625 C 273.75 94.40625 274.113281 93.785156 274.511719 93.164062 C 274.113281 93 273.816406 92.675781 273.585938 92.3125 C 273.382812 91.988281 273.21875 91.59375 273.089844 91.234375 C 272.628906 89.863281 272.527344 88.421875 272.394531 87.019531 L 272.394531 86.171875 C 272.230469 86.300781 272.195312 87.410156 272.195312 87.578125 C 272.097656 89.0625 271.898438 90.53125 271.597656 91.988281 C 271.5 92.578125 271.433594 93.164062 271.066406 93.6875 C 271.066406 93.753906 271.066406 93.820312 271.101562 93.917969 C 271.695312 95.648438 271.859375 97.414062 271.960938 99.210938 L 271.960938 99.867188 C 271.960938 100.652344 271.929688 100.488281 272.585938 100.75 C 272.851562 100.847656 273.148438 100.878906 273.414062 101.074219 C 273.613281 101.074219 273.648438 100.910156 273.648438 100.78125 L 273.546875 99.703125 L 273.546875 96.695312 C 273.515625 96.171875 273.613281 95.648438 273.679688 95.15625 Z M 273.683594 95.15625 " fill-opacity="1" fill-rule="nonzero"/></g><g clip-path="url(#1073a3bdd7)"><path fill="#e44d26" d="M 307.316406 96.945312 L 302.535156 43.253906 L 355.066406 43.253906 L 350.28125 96.9375 L 328.769531 102.90625 Z M 307.316406 96.945312 " fill-opacity="1" fill-rule="nonzero"/></g><path fill="#f16529" d="M 346.183594 93.519531 L 350.273438 47.644531 L 328.800781 47.644531 L 328.800781 98.347656 Z M 346.183594 93.519531 " fill-opacity="1" fill-rule="nonzero"/><path fill="#ebebeb" d="M 328.777344 54.230469 L 312.308594 54.230469 L 314.085938 74.144531 L 328.800781 74.144531 L 328.800781 67.558594 L 320.101562 67.558594 L 319.5 60.816406 L 328.800781 60.816406 L 328.800781 54.230469 Z M 328.800781 84.636719 L 328.773438 84.644531 L 321.449219 82.667969 L 320.984375 77.414062 L 314.378906 77.414062 L 315.300781 87.753906 L 328.773438 91.480469 L 328.800781 91.472656 Z M 328.800781 84.636719 " fill-opacity="1" fill-rule="nonzero"/><path fill="#ffffff" d="M 328.777344 74.144531 L 336.878906 74.144531 L 336.132812 82.679688 L 328.796875 84.664062 L 328.796875 91.511719 L 342.28125 87.773438 L 344.085938 67.554688 L 328.800781 67.554688 Z M 345.09375 55.996094 L 345.25 54.230469 L 328.773438 54.230469 L 328.773438 60.8125 L 344.660156 60.8125 L 344.789062 59.332031 Z M 345.09375 55.996094 " fill-opacity="1" fill-rule="nonzero"/><g clip-path="url(#c66382e1e2)"><path fill="#0277bd" d="M 425.628906 43.082031 L 371.640625 43.082031 L 376.402344 96.765625 L 398.632812 103.082031 L 420.863281 96.765625 Z M 425.628906 43.082031 " fill-opacity="1" fill-rule="nonzero"/></g><path fill="#039be5" d="M 398.632812 47.816406 L 398.632812 98.1875 L 416.417969 93.132812 L 420.386719 47.816406 Z M 398.632812 47.816406 " fill-opacity="1" fill-rule="nonzero"/><path fill="#ffffff" d="M 413.082031 55.710938 L 398.632812 55.710938 L 398.632812 62.027344 L 406.414062 62.027344 L 405.9375 68.34375 L 398.632812 68.34375 L 398.632812 74.660156 L 405.621094 74.660156 L 405.144531 81.765625 L 398.632812 83.976562 L 398.632812 90.605469 L 411.179688 86.5 L 412.289062 68.34375 Z M 413.082031 55.710938 " fill-opacity="1" fill-rule="nonzero"/><path fill="#eeeeee" d="M 398.632812 55.710938 L 398.632812 62.027344 L 384.5 62.027344 L 384.023438 55.710938 Z M 391.328125 68.34375 L 391.648438 74.660156 L 398.632812 74.660156 L 398.632812 68.34375 Z M 391.964844 77.816406 L 385.613281 77.816406 L 386.089844 86.5 L 398.632812 90.605469 L 398.632812 83.976562 L 392.121094 81.765625 Z M 391.964844 77.816406 " fill-opacity="1" fill-rule="nonzero"/></svg>